<svg xmlns="http://www.w3.org/2000/svg" width="100" height="30" viewBox="0 0 100 30" role="img" aria-label="Hero.">
    <g fill="#171426" fill-rule="evenodd">
        <path d="M24.767.345H18.49c-.304 0-.551.245-.551.547v9.94H7.337V.892c0-.302-.247-.547-.551-.547H.55C.247.345 0 .59 0 .892v26.997c0 .302.247.548.551.548h6.235c.304 0 .55-.246.55-.548V17.065H17.94V27.89c0 .302.247.548.551.548h6.277c.304 0 .551-.246.551-.548V.892c0-.302-.247-.547-.551-.547M82.631 21.993c-.806.8-1.908 1.263-3.011 1.263-1.145 0-2.248-.463-3.054-1.263-.763-.759-1.314-1.854-1.314-2.99 0-1.096.466-2.274 1.314-3.075.763-.716 1.951-1.222 3.054-1.222 1.06 0 2.248.506 3.011 1.222.848.842 1.315 2.063 1.315 3.074 0 1.095-.467 2.19-1.315 2.99m5.429-9.897c-1.57-1.474-4.284-3.116-8.482-3.116-4.114 0-6.871 1.6-8.44 3.116-1.4 1.348-2.926 3.538-2.926 6.907 0 2.527.848 4.928 2.926 6.95 2.63 2.569 5.683 3.116 8.44 3.116 3.053 0 5.98-.674 8.482-3.116 2.078-2.022 2.926-4.423 2.926-6.95 0-3.37-1.527-5.56-2.926-6.907M35.447 16.39c.128-.841.552-1.515 1.018-2.02.722-.716 1.612-1.011 2.757-1.011.679 0 1.908.126 2.8 1.01.508.506.932 1.306 1.102 2.022h-7.677zm10.9-4.758c-2.248-2.106-5.09-2.569-7.294-2.569-3.733 0-6.192 1.222-7.762 2.737-1.653 1.6-2.84 4.128-2.84 7.286 0 3.58 1.568 5.897 2.798 7.118 2.333 2.317 5.344 2.864 7.846 2.864 4.113 0 6.319-1.263 7.718-2.61 1.095-1.055 1.697-2.186 2.049-3.134.135-.362-.141-.742-.53-.742h-5.407c-.193 0-.361.11-.465.27-.29.45-.677.782-1.033.994-.848.463-2.035.505-2.205.505-1.526 0-2.375-.505-2.799-.927-.644-.64-1.017-1.63-1.141-2.518-.047-.337.208-.64.55-.64H48.824c.295-.002.534-.24.534-.533v-.183c0-2.106-.34-5.391-3.011-7.918zM66.234 9.37l-.019-.001c-.468-.03-.667-.053-.795-.053-1.271 0-2.502.21-3.52.758-1.017.505-1.993 1.347-2.67 2.611v-2.524c0-.304-.25-.55-.556-.55H53c-.307 0-.555.246-.555.55v17.724c0 .305.248.552.555.552h5.675c.306 0 .555-.247.555-.552v-7.493c0-1.01.084-2.99 1.526-4.296.976-.884 2.205-1.01 3.097-1.01.957 0 1.673.169 2.172.344.367.13.753-.126.753-.514V9.919c0-.3-.242-.543-.543-.55M96.783 21.531c-2.594-.382-4.757 1.766-4.372 4.342.24 1.603 1.559 2.913 3.173 3.15 2.594.384 4.757-1.765 4.371-4.34-.24-1.604-1.559-2.913-3.172-3.152" />
    </g>
</svg>
